<?xml version="1.0" encoding="UTF-8"?><svg id="OPEN_x5F_SAVE" xmlns="http://www.w3.org/2000/svg" viewBox="0 0 32 32"><defs><style>.cls-1{fill:#0092d2;}</style></defs><g id="FILE"><path class="cls-1" d="M21.64,12.14c-.42,4.52-.55,9.06-.39,13.61-.32-4.53-.36-9.1-.1-13.65.01-.32.53-.29.49.04h0Z"/><path class="cls-1" d="M7.26,16.78h3.08s-3.08.2-3.08.2c-.13.01-.14-.2,0-.2h0Z"/><path class="cls-1" d="M27.07,10.38c-2.07,1.92-4.18,3.96-6.85,5-2.69.92-5.48,1.45-8.29,1.8,2.79-.41,5.58-1.01,8.22-1.98,2.61-1.09,4.64-3.16,6.65-5.1.18-.18.47.11.27.28h0Z"/><path class="cls-1" d="M26.21,13.41c-1.75,1.46-3.55,3.09-5.83,3.63-1.99.35-4.85.2-6.88.32,2.02-.16,4.9-.08,6.85-.47,2.23-.58,3.97-2.23,5.67-3.7.14-.13.35.1.2.22h0Z"/><path class="cls-1" d="M9.26,15.3l2.56.96-2.65-.68c-.2-.05-.1-.36.09-.28h0Z"/><path class="cls-1" d="M23.08,23.04c.6-.73,1.41-1.57,2.1-2.2,0,0,.77-.67.77-.67l.12.16c-1.03.78-2.13,1.75-2.99,2.71h0Z"/><path class="cls-1" d="M17.63,19.47c1.15.57,1.96,1.65,3.07,2.25,1.32.43,2.19-1.06,3.03-1.83,0,0,1.76-1.85,1.76-1.85,0,0,.17.17.17.17l-1.8,1.81c-.86.77-1.83,2.28-3.19,1.78-1.12-.63-1.89-1.72-3.03-2.33h0Z"/><path class="cls-1" d="M25.38,8.5c-1.76,4.49-2.28,9.48-1.25,14.22-1.2-4.73-.84-9.79.79-14.39.1-.31.59-.13.46.17h0Z"/><polygon class="cls-1" points="18.02 14.3 18.76 20.97 17.54 14.39 18.02 14.3 18.02 14.3"/><path class="cls-1" d="M14.38,15.66c.84.94,1.54,1.98,2.16,3.05-.73-1-1.53-1.95-2.44-2.77l.28-.28h0Z"/><path class="cls-1" d="M9.81,13.62l3.14,2.26-3.3-2.01c-.17-.1,0-.37.16-.25h0Z"/><path class="cls-1" d="M7.99,9.78l6,5.78-6.2-5.56c-.15-.13.06-.36.2-.22h0Z"/><path class="cls-1" d="M10.79,10.91c2.19,3.69-1.16,5.69-4.24,6.85,2.95-1.22,6.25-3.21,4.02-6.74,0,0,.22-.12.22-.12h0Z"/><path class="cls-1" d="M14.71,17.76c5.98,1.07,5.94,2.87,10.92-2.05.11-.11.29.07.17.18-5.12,4.85-5.1,3.08-11.09,1.86h0Z"/><path class="cls-1" d="M13.45,13.53c-.5,1.3-1.57,2.29-2.8,2.89,1.18-.65,2.19-1.66,2.61-2.96,0,0,.18.07.18.07h0Z"/><path class="cls-1" d="M2.31,1.82c1.91,2.66,4.78,6.2,6.38,9.02,2.06,3.24,1.15,5.2-2.38,6.46,0,0-2.54,1.07-2.54,1.07l2.5-1.16c3.3-1.33,4.19-3.12,2.08-6.17C6.69,8.34,3.66,4.85,1.69,2.31c-.33-.4.32-.91.62-.48h0Z"/><path class="cls-1" d="M30.46,2.19c-1.42,3.22-7.4,16.74-3.47,18.87.85.43,1.8.68,2.74.93-.95-.21-1.89-.41-2.79-.82-4.19-2.08,1.29-15.93,2.62-19.35.24-.61,1.17-.24.92.37h0Z"/><path class="cls-1" d="M28.43,21.92c-4.55-.18-5.62,4.66-6.5,8.19-.11.5-.9.31-.77-.19,1.12-3.51,2.64-8.5,7.26-8h0Z"/><path class="cls-1" d="M21.18,30.1c-1.56-6.82-3.88-13.94-12.43-12.14,0,0-6.65,1.09-6.65,1.09l6.62-1.28c8.71-2.09,11.45,5.19,13.23,12.13.14.5-.63.72-.76.21h0Z"/><path class="cls-1" d="M15.05,15C10.34,11.07,6.02,6.7,1.71,2.34c-.37-.37.23-.94.57-.54,4.11,4.54,8.23,9.07,12.76,13.2h0Z"/><path class="cls-1" d="M30.4,2.29c-6.7,9.42-10.5,12.67-21.95,15.27,4.34-1.27,8.85-2.62,12.47-5.4,1.79-1.39,3.3-3.08,4.7-4.88,1.4-1.79,2.69-3.67,3.99-5.56.37-.53,1.2.04.8.57h0Z"/></g></svg>