<?xml version="1.0" encoding="UTF-8"?><svg id="cloud" xmlns="http://www.w3.org/2000/svg" xmlns:xlink="http://www.w3.org/1999/xlink" viewBox="0 0 32 32"><defs><style>.cls-1{fill:#f0f0f0;stroke:#fff;stroke-linecap:round;stroke-linejoin:round;}.cls-1,.cls-2,.cls-3{stroke-width:3px;}.cls-4{fill:red;}.cls-5{fill:url(#linear-gradient);stroke:#1c8ec4;stroke-width:2px;}.cls-5,.cls-2,.cls-3{stroke-miterlimit:10;}.cls-6{fill:#1c8ec4;}.cls-2,.cls-3{fill:none;stroke:red;}.cls-3{stroke-dasharray:1.4 1.4;}</style><linearGradient id="linear-gradient" x1="3" y1="22" x2="29" y2="22" gradientUnits="userSpaceOnUse"><stop offset="0" stop-color="#fff"/><stop offset="1" stop-color="#b3b3b3"/></linearGradient></defs><path class="cls-5" d="M25.23,21.56c2.11.18,3.77,1.95,3.77,4.1,0,2.28-1.84,4.12-4.12,4.12H8.22c-2.89,0-5.22-2.34-5.22-5.22s2.34-5.22,5.22-5.22h1.69c.06-2.83,2.38-5.11,5.22-5.11,2.53,0,4.65,1.8,5.12,4.2.52-.39,1.18-.62,1.88-.62,1.74,0,3.15,1.41,3.15,3.15,0,.21-.02.42-.06.61Z"/><polygon class="cls-6" points="12.75 20.33 9.92 20.33 9.92 18.33 14.72 18.33 12.75 20.33"/><path class="cls-1" d="M26.46,16.41l-2.99-.26c.02-.21.03-.43.03-.65h3c0,.31-.01.61-.04.91Z"/><path class="cls-1" d="M18.52,25.69l-.72-2.91c.37-.09.74-.21,1.1-.37l1.16,2.77c-.5.21-1.02.38-1.55.51ZM21.52,24.43l-1.58-2.55c.33-.21.65-.44.94-.69l1.95,2.28c-.41.35-.85.67-1.31.96ZM23.98,22.33l-2.28-1.95c.25-.29.48-.61.69-.94l2.55,1.58c-.29.46-.61.91-.96,1.32ZM25.68,19.57l-2.76-1.17c.15-.35.27-.72.36-1.1l2.91.72c-.13.53-.3,1.05-.51,1.55Z"/><path class="cls-1" d="M16,26v-3c.22,0,.44,0,.66-.03l.25,2.99c-.3.02-.6.04-.91.04Z"/><path class="cls-1" d="M26.5,15.5h-3c0-4.14-3.36-7.5-7.5-7.5-3.2,0-6.06,2.03-7.1,5.06l-2.84-.97c1.46-4.24,5.45-7.09,9.93-7.09,5.79,0,10.5,4.71,10.5,10.5Z"/><polygon class="cls-1" points="12.93 12.83 5.04 19.7 3.03 9.43 12.93 12.83"/><path class="cls-2" d="M25,15.5c0,.26-.01.52-.03.78"/><path class="cls-3" d="M24.74,17.66c-.85,3.46-3.71,6.14-7.27,6.72"/><path class="cls-2" d="M16.78,24.47c-.26.02-.52.03-.78.03"/><path class="cls-2" d="M7.49,12.58c1.21-3.53,4.57-6.08,8.51-6.08,4.97,0,9,4.03,9,9"/><polygon class="cls-4" points="12.93 12.83 5.04 19.7 3.03 9.43 12.93 12.83"/></svg>