<?xml version="1.0" encoding="UTF-8"?><svg id="CONSTRAINTS" xmlns="http://www.w3.org/2000/svg" xmlns:xlink="http://www.w3.org/1999/xlink" viewBox="0 0 32 32"><defs><style>.cls-1,.cls-2,.cls-3,.cls-4,.cls-5{fill:none;}.cls-1,.cls-2,.cls-3,.cls-4,.cls-5,.cls-6{stroke-miterlimit:10;}.cls-1,.cls-3,.cls-4{stroke:#000;}.cls-2{stroke:url(#linear-gradient);}.cls-7,.cls-3{opacity:.25;}.cls-8{filter:url(#outer-glow-5);}.cls-4{stroke-width:2px;}.cls-5{stroke:url(#linear-gradient-2);}.cls-6{fill:#fff;stroke:#00adee;}.cls-9{filter:url(#outer-glow-4);}</style><linearGradient id="linear-gradient" x1="2" y1="8.5" x2="12" y2="8.5" gradientUnits="userSpaceOnUse"><stop offset="0" stop-color="#000" stop-opacity="0"/><stop offset="1" stop-color="#231f20"/></linearGradient><linearGradient id="linear-gradient-2" x1="-151.5" y1="112" x2="-141.5" y2="112" gradientTransform="translate(-88.5 -121.5) rotate(-90)" xlink:href="#linear-gradient"/><filter id="outer-glow-4" filterUnits="userSpaceOnUse"><feOffset dx="0" dy="0"/><feGaussianBlur result="blur" stdDeviation="1"/><feFlood flood-color="#000" flood-opacity=".5"/><feComposite in2="blur" operator="in"/><feComposite in="SourceGraphic"/></filter><filter id="outer-glow-5" filterUnits="userSpaceOnUse"><feOffset dx="0" dy="0"/><feGaussianBlur result="blur-2" stdDeviation="1"/><feFlood flood-color="#000" flood-opacity=".5"/><feComposite in2="blur-2" operator="in"/><feComposite in="SourceGraphic"/></filter></defs><g id="EDGES"><line class="cls-1" x1="22" y1="8.5" x2="12" y2="8.5"/><line class="cls-2" x1="2" y1="8.5" x2="12" y2="8.5"/><line class="cls-1" x1="23.5" y1="10" x2="23.5" y2="20"/><line class="cls-5" x1="23.5" y1="30" x2="23.5" y2="20"/><line class="cls-3" x1="9" y1="21.5" x2="2" y2="21.5"/><line class="cls-3" x1="10.5" y1="23" x2="10.5" y2="30"/></g><g id="brackets"><g class="cls-7"><rect class="cls-6" x="9.5" y="20.5" width="2" height="2"/><g class="cls-9"><polyline class="cls-4" points="6 20 6 17 9 17"/><polyline class="cls-4" points="12 17 15 17 15 20"/><polyline class="cls-4" points="6 23 6 26 9 26"/><polyline class="cls-4" points="12 26 15 26 15 23"/></g></g><rect class="cls-6" x="22.5" y="7.5" width="2" height="2"/><g class="cls-8"><polyline class="cls-4" points="19 7 19 4 22 4"/><polyline class="cls-4" points="25 4 28 4 28 7"/><polyline class="cls-4" points="19 10 19 13 22 13"/><polyline class="cls-4" points="25 13 28 13 28 10"/></g></g></svg>