<?xml version="1.0" encoding="UTF-8"?><svg id="MODIFY" xmlns="http://www.w3.org/2000/svg" xmlns:xlink="http://www.w3.org/1999/xlink" viewBox="0 0 32 32"><defs><style>.cls-1,.cls-2,.cls-3,.cls-4{stroke:#000;}.cls-1,.cls-5,.cls-4{stroke-miterlimit:10;}.cls-1,.cls-5,.cls-6,.cls-7,.cls-8{fill:none;}.cls-9{fill:url(#Linear_Gradient_7);}.cls-2{stroke-width:2px;}.cls-2,.cls-3,.cls-4{fill:#fff;}.cls-2,.cls-3,.cls-6,.cls-7,.cls-8{stroke-linejoin:round;}.cls-2,.cls-3,.cls-6,.cls-8{stroke-linecap:round;}.cls-3,.cls-5,.cls-7{stroke-width:1px;}.cls-5,.cls-7{stroke:#b3b3b3;stroke-linecap:square;}.cls-4{filter:url(#outer-glow-8);}.cls-6{stroke-width:.75px;}.cls-6,.cls-8{stroke:#007f00;}.cls-10{fill:#007f00;}</style><filter id="outer-glow-8" filterUnits="userSpaceOnUse"><feOffset dx="0" dy="0"/><feGaussianBlur result="blur" stdDeviation="1"/><feFlood flood-color="#000" flood-opacity=".75"/><feComposite in2="blur" operator="in"/><feComposite in="SourceGraphic"/></filter><linearGradient id="Linear_Gradient_7" x1="18.61" y1="3.5" x2="28.39" y2="3.5" gradientUnits="userSpaceOnUse"><stop offset="0" stop-color="#2e4ab5"/><stop offset="1" stop-color="#bdc9fa"/></linearGradient></defs><g id="EDGES-2"><line class="cls-5" x1="7.5" y1="7" x2="7.5" y2="2.5"/><line class="cls-5" x1="7.5" y1="29.5" x2="7.5" y2="25"/><line class="cls-7" x1="24.5" y1="12.5" x2="24.5" y2="29.5"/><line class="cls-5" x1="2.5" y1="7.5" x2="24.5" y2="7.5"/><line class="cls-2" x1="7.5" y1="24.5" x2="7.5" y2="7.5"/><line class="cls-5" x1="29.5" y1="24.5" x2="2.5" y2="24.5"/></g><g id="HIGHLIGHTS"><circle class="cls-3" cx="7.5" cy="24.5" r="2"/><circle class="cls-3" cx="7.5" cy="7.5" r="2"/></g><g id="BOX"><g id="POLYLINE"><line class="cls-6" x1="20.86" y1="15.57" x2="18.18" y2="14.45"/></g><g id="POLYLINE-2"><line class="cls-8" x1="20.86" y1="15.57" x2="24.74" y2="11.46"/></g><g id="POLYLINE-3"><line class="cls-8" x1="21.62" y1="8.08" x2="28.07" y2="7.04"/></g><g id="POLYLINE-4"><line class="cls-8" x1="24.74" y1="11.46" x2="29" y2="7.96"/></g><g id="POLYLINE-5"><line class="cls-8" x1="28.07" y1="7.04" x2="28.3" y2="7.27"/></g><g id="POLYLINE-6"><line class="cls-8" x1="28.3" y1="7.27" x2="28.53" y2="7.5"/></g><g id="POLYLINE-7"><line class="cls-8" x1="28.53" y1="7.5" x2="28.77" y2="7.73"/></g><g id="POLYLINE-8"><line class="cls-8" x1="28.77" y1="7.73" x2="29" y2="7.96"/></g><path class="cls-10" d="M18,14.21l5.29-3.44h.09s-.09,0-.09,0l2.41-1.28-2.32,1.44s-.08.07-.11.04c-.03-.05.09-.04.11-.04,0,0-5.05,3.79-5.05,3.79-.32.24-.68-.28-.34-.49h0Z"/><rect class="cls-4" x="17.5" y="2.5" width="12" height="18"/><line class="cls-1" x1="18" y1="4.5" x2="29" y2="4.5"/><line class="cls-1" x1="21" y1="8.5" x2="26" y2="8.5"/><line class="cls-1" x1="21" y1="10.5" x2="24" y2="10.5"/><line class="cls-1" x1="21" y1="12.5" x2="25" y2="12.5"/><line class="cls-1" x1="23" y1="14.5" x2="27" y2="14.5"/><line class="cls-1" x1="23" y1="16.5" x2="26" y2="16.5"/><line class="cls-1" x1="23" y1="18.5" x2="28" y2="18.5"/><rect class="cls-9" x="18" y="3" width="11" height="1"/><line class="cls-1" x1="19" y1="6.5" x2="25" y2="6.5"/></g></svg>