<?xml version="1.0" encoding="UTF-8"?><svg id="cloud" xmlns="http://www.w3.org/2000/svg" xmlns:xlink="http://www.w3.org/1999/xlink" viewBox="0 0 32 32"><defs><style>.cls-1{fill:#f0f0f0;stroke:#fff;stroke-linecap:round;stroke-linejoin:round;}.cls-1,.cls-2{stroke-width:3px;}.cls-2{fill:none;stroke:#006837;}.cls-2,.cls-3{stroke-miterlimit:10;}.cls-3{fill:url(#linear-gradient);stroke:#1c8ec4;stroke-width:2px;}.cls-4{fill:#1c8ec4;}</style><linearGradient id="linear-gradient" x1="3" y1="22" x2="29" y2="22" gradientUnits="userSpaceOnUse"><stop offset="0" stop-color="#fff"/><stop offset="1" stop-color="#b3b3b3"/></linearGradient></defs><path class="cls-3" d="M25.23,21.56c2.11.18,3.77,1.95,3.77,4.1,0,2.28-1.84,4.12-4.12,4.12H8.22c-2.89,0-5.22-2.34-5.22-5.22s2.34-5.22,5.22-5.22h1.69c.06-2.83,2.38-5.11,5.22-5.11,2.53,0,4.65,1.8,5.12,4.2.52-.39,1.18-.62,1.88-.62,1.74,0,3.15,1.41,3.15,3.15,0,.21-.02.42-.06.61Z"/><polygon class="cls-4" points="12.75 20.33 9.92 20.33 9.92 18.33 14.72 18.33 12.75 20.33"/><polygon class="cls-1" points="13.25 26.98 6.7 15.76 9.3 14.24 13.25 21.02 23.04 4.24 25.63 5.76 13.25 26.98"/><polyline class="cls-2" points="8 15 13.25 24 24.33 5"/></svg>