<?xml version="1.0" encoding="UTF-8"?><svg id="cloud" xmlns="http://www.w3.org/2000/svg" xmlns:xlink="http://www.w3.org/1999/xlink" viewBox="0 0 32 32"><defs><style>.cls-1{fill:#f0f0f0;stroke:#fff;}.cls-1,.cls-2{stroke-linecap:round;stroke-linejoin:round;stroke-width:3px;}.cls-2{fill:none;stroke:#000;}.cls-3{fill:url(#linear-gradient);stroke:#1c8ec4;stroke-miterlimit:10;stroke-width:2px;}.cls-4{fill:#1c8ec4;}</style><linearGradient id="linear-gradient" x1="3" y1="22" x2="29" y2="22" gradientUnits="userSpaceOnUse"><stop offset="0" stop-color="#fff"/><stop offset="1" stop-color="#b3b3b3"/></linearGradient></defs><path class="cls-3" d="M25.23,21.56c2.11.18,3.77,1.95,3.77,4.1,0,2.28-1.84,4.12-4.12,4.12H8.22c-2.89,0-5.22-2.34-5.22-5.22s2.34-5.22,5.22-5.22h1.69c.06-2.83,2.38-5.11,5.22-5.11,2.53,0,4.65,1.8,5.12,4.2.52-.39,1.18-.62,1.88-.62,1.74,0,3.15,1.41,3.15,3.15,0,.21-.02.42-.06.61Z"/><polygon class="cls-4" points="12.75 20.33 9.92 20.33 9.92 18.33 14.72 18.33 12.75 20.33"/><path class="cls-1" d="M16,27c-5.79,0-10.5-4.71-10.5-10.5,0-3.74,2.01-7.22,5.25-9.09.72-.42,1.63-.17,2.05.55.42.72.17,1.63-.55,2.05-2.31,1.34-3.75,3.83-3.75,6.5,0,4.14,3.36,7.5,7.5,7.5s7.5-3.36,7.5-7.5c0-2.67-1.44-5.16-3.75-6.5-.72-.41-.96-1.33-.55-2.05.42-.72,1.33-.96,2.05-.55,3.24,1.87,5.25,5.36,5.25,9.09,0,5.79-4.71,10.5-10.5,10.5Z"/><path class="cls-1" d="M16,16.5c-.83,0-1.5-.67-1.5-1.5V5c0-.83.67-1.5,1.5-1.5s1.5.67,1.5,1.5v10c0,.83-.67,1.5-1.5,1.5Z"/><path class="cls-2" d="M20.5,8.7c2.69,1.56,4.5,4.46,4.5,7.8,0,4.97-4.03,9-9,9s-9-4.03-9-9c0-3.33,1.81-6.24,4.5-7.8"/><line class="cls-2" x1="16" y1="5" x2="16" y2="15"/></svg>