<?xml version="1.0" encoding="UTF-8"?><svg id="OPEN_x5F_SAVE" xmlns="http://www.w3.org/2000/svg" xmlns:xlink="http://www.w3.org/1999/xlink" viewBox="0 0 32 32"><defs><style>.cls-1{fill:url(#linear-gradient);}.cls-1,.cls-2{stroke-miterlimit:10;}.cls-1,.cls-2,.cls-3,.cls-4,.cls-5{fill-rule:evenodd;}.cls-1,.cls-2,.cls-3,.cls-5{stroke:#000;}.cls-6{fill:#1c8ec4;font-family:Roboto-Black, Roboto;font-size:14px;font-weight:800;}.cls-2{fill:url(#Linear_Gradient_10);}.cls-3{fill:#fff;stroke-linecap:round;}.cls-3,.cls-5{stroke-linejoin:round;}.cls-4{fill:url(#Linear_Gradient_61);opacity:.75;}.cls-5{fill:none;}</style><linearGradient id="Linear_Gradient_10" x1="12.02" y1="25.96" x2="11.94" y2="14.31" gradientUnits="userSpaceOnUse"><stop offset="0" stop-color="#e88a0d"/><stop offset="0" stop-color="#e88d10"/><stop offset=".09" stop-color="#eea926"/><stop offset=".18" stop-color="#f3c037"/><stop offset=".29" stop-color="#f7d245"/><stop offset=".42" stop-color="#fade4f"/><stop offset=".59" stop-color="#fbe555"/><stop offset="1" stop-color="#fce857"/></linearGradient><linearGradient id="linear-gradient" x1="8.38" y1="2.62" x2="28.87" y2="23.12" gradientUnits="userSpaceOnUse"><stop offset="0" stop-color="#fff"/><stop offset="1" stop-color="#ccc"/></linearGradient><linearGradient id="Linear_Gradient_61" x1="14.83" y1="27.17" x2="14.83" y2="18.5" gradientUnits="userSpaceOnUse"><stop offset="0" stop-color="#ffc924"/><stop offset="1" stop-color="#faf5c4"/></linearGradient></defs><g id="FILE"><polygon class="cls-2" points="1.5 30.5 1.5 15 4 12.5 11 12.5 13 14.5 21.5 14.5 22.5 15.5 22.5 30.5 1.5 30.5"/><polyline class="cls-1" points="30.5 7 30.5 21.5 9.5 21.5 9.5 1.5 25 1.5"/><polygon class="cls-3" points="25.5 1.5 25.5 6.5 30.5 6.5 25.5 1.5"/><text class="cls-6" transform="translate(12.34 18.75)"><tspan x="0" y="0">FF</tspan></text></g><g id="FOLDER_x5F_TOP"><polygon class="cls-4" points="1.5 30.5 6.83 18.5 28.17 18.5 22.83 30.5 1.5 30.5"/><polygon class="cls-5" points="1.5 30.5 6.83 18.5 28.17 18.5 22.83 30.5 1.5 30.5"/></g></svg>