<?xml version="1.0" encoding="UTF-8"?><svg id="OPEN_x5F_SAVE" xmlns="http://www.w3.org/2000/svg" xmlns:xlink="http://www.w3.org/1999/xlink" viewBox="0 0 32 32"><defs><style>.cls-1{opacity:.75;}.cls-2{fill:url(#linear-gradient);}.cls-2,.cls-3{stroke:#000;}.cls-2,.cls-3,.cls-4,.cls-5,.cls-6,.cls-7,.cls-8,.cls-9,.cls-10{fill-rule:evenodd;}.cls-2,.cls-4{stroke-miterlimit:10;}.cls-11{fill:#1c8ec4;font-family:Roboto-Black, Roboto;font-size:14px;font-weight:800;}.cls-12{fill:#1d1d1b;}.cls-13,.cls-3{fill:#fff;}.cls-3,.cls-8,.cls-9{stroke-linecap:round;stroke-linejoin:round;}.cls-4{stroke:#fff;}.cls-4,.cls-8,.cls-9{fill:none;}.cls-4,.cls-9{stroke-width:1.05px;}.cls-5{fill:url(#Linear_Gradient_16);}.cls-6{fill:url(#Linear_Gradient_19);}.cls-14{fill:url(#Linear_Gradient_17);}.cls-8,.cls-9{stroke:#1d1d1b;}.cls-10{fill:url(#Linear_Gradient_18);}</style><linearGradient id="linear-gradient" x1="8.38" y1="2.62" x2="28.87" y2="23.12" gradientUnits="userSpaceOnUse"><stop offset="0" stop-color="#fff"/><stop offset="1" stop-color="#ccc"/></linearGradient><linearGradient id="Linear_Gradient_16" x1="10.5" y1="27.65" x2="10.5" y2="13.47" gradientUnits="userSpaceOnUse"><stop offset="0" stop-color="#ada057"/><stop offset="1" stop-color="#ddd088"/></linearGradient><linearGradient id="Linear_Gradient_17" x1="10.53" y1="19.5" x2="10.53" y2="13.35" gradientUnits="userSpaceOnUse"><stop offset="0" stop-color="#c9cbcc"/><stop offset="1" stop-color="#e6e8e8"/></linearGradient><linearGradient id="Linear_Gradient_18" x1="9.47" y1="30.02" x2="9.47" y2="24.82" gradientUnits="userSpaceOnUse"><stop offset="0" stop-color="#868b8e"/><stop offset="1" stop-color="#abadb0"/></linearGradient><linearGradient id="Linear_Gradient_19" x1="9.56" y1="25.14" x2="9.56" y2="30.41" gradientUnits="userSpaceOnUse"><stop offset="0" stop-color="#fff"/><stop offset="1" stop-color="#1d1d1b"/></linearGradient></defs><g id="FILE"><polyline class="cls-2" points="30.5 7 30.5 21.5 9.5 21.5 9.5 1.5 25 1.5"/><polygon class="cls-3" points="25.5 1.5 25.5 6.5 30.5 6.5 25.5 1.5"/><text class="cls-11" transform="translate(12.34 18.75)"><tspan x="0" y="0">FF</tspan></text></g><g id="FOLDER_x5F_TOP"><g class="cls-1"><path class="cls-5" d="M2.41,12.52h16.21c.42,0,.88.5.88.92v15.99c0,.48-.5,1.05-.98,1.05h-1.39s-.95-.94-.95-.94l-9.89.93-.99.02h-1.83s-1.98-1.99-1.98-1.99v-14.92c0-.46.45-1.05.91-1.05Z"/><rect class="cls-14" x="5.25" y="12.88" width="10.56" height="7.56"/><polyline class="cls-4" points="5.77 12 5.77 19.88 15.28 19.88 15.28 12"/><rect class="cls-13" x="2.08" y="13.05" width="17.02" height="1.06"/><rect class="cls-13" x="17.92" y="15.16" width="1.05" height="1.06"/></g><path class="cls-8" d="M2.44,12.52h16.18c.42,0,.88.5.88.92v15.99c0,.48-.5,1.06-.98,1.05l-1.14-.02-1.05-1.06h-2.11l-4.22,1.06-4.68.02h-1.81l-1.97-1.99v-14.93c0-.46.44-1.05.91-1.05Z"/><rect class="cls-13" x="2.08" y="15.16" width="1.05" height="1.06"/><rect class="cls-12" x="2.08" y="14.11" width="1.05" height="1.05"/><path class="cls-10" d="M6.3,24.67v5.28h3.17v-5.28h-3.17ZM4.72,24.67v5.81l9.5.02v-5.82c0-.25-.28-.53-.53-.53H5.25c-.25,0-.53.28-.53.53Z"/><path class="cls-6" d="M5.25,24.67v5.74h8.62v-5.74H5.25ZM6.3,25.72v3.17h6.34v-3.17h-6.34Z"/><path class="cls-9" d="M4.72,24.69v5.81h9.5v-5.94c0-.19-.2-.43-.4-.43H5.12c-.23,0-.4.33-.4.55Z"/><rect class="cls-12" x="6.3" y="24.67" width="3.17" height="5.28"/><rect class="cls-12" x="17.92" y="14.11" width="1.05" height="1.05"/><polygon class="cls-7" points="4.19 21.5 4.19 13.05 5.25 13.05 5.25 20.44 15.81 20.44 15.81 13.05 16.86 13.05 16.86 21.5 4.19 21.5"/></g></svg>