<?xml version="1.0" encoding="UTF-8"?><svg id="SOLVERS" xmlns="http://www.w3.org/2000/svg" xmlns:xlink="http://www.w3.org/1999/xlink" viewBox="0 0 32 32"><defs><style>.cls-1,.cls-2{font-family:Roboto-Bold, Roboto;font-size:14px;font-weight:700;}.cls-2{stroke:#fff;stroke-miterlimit:10;stroke-width:1.5px;}.cls-2,.cls-3{fill:#fff;}.cls-3{stroke:red;}.cls-3,.cls-4,.cls-5{stroke-linecap:round;stroke-linejoin:round;}.cls-6{fill:url(#radial-gradient);}.cls-4{stroke-width:.25px;}.cls-4,.cls-5{fill:none;stroke:#000;}.cls-7{letter-spacing:-.01em;}.cls-5{stroke-width:.5px;}</style><radialGradient id="radial-gradient" cx="15.99" cy="16" fx="15.99" fy="16" r="12.5" gradientUnits="userSpaceOnUse"><stop offset=".5" stop-color="#fff"/><stop offset="1" stop-color="#999"/></radialGradient></defs><g id="mesh_fill"><polygon class="cls-6" points="25.39 8.88 28.49 3.5 23.11 6.6 18.32 7.98 13.67 7.98 8.87 6.6 3.49 3.5 6.6 8.88 7.97 13.68 7.97 18.32 6.6 23.12 3.49 28.5 8.87 25.4 13.67 24.02 18.32 24.02 23.11 25.4 28.49 28.5 25.39 23.12 24.01 18.32 24.01 13.68 25.39 8.88"/></g><g id="MESH-3"><line class="cls-5" x1="23.11" y1="6.6" x2="28.49" y2="3.5"/><line class="cls-5" x1="18.32" y1="7.98" x2="23.11" y2="6.6"/><line class="cls-5" x1="13.67" y1="7.98" x2="18.32" y2="7.98"/><line class="cls-5" x1="8.87" y1="6.6" x2="13.67" y2="7.98"/><line class="cls-5" x1="3.49" y1="3.5" x2="8.87" y2="6.6"/><line class="cls-5" x1="25.39" y1="8.88" x2="28.49" y2="3.5"/><line class="cls-4" x1="21.94" y1="10.05" x2="25.39" y2="8.88"/><line class="cls-4" x1="21.94" y1="10.05" x2="23.11" y2="6.6"/><line class="cls-4" x1="18.01" y1="10.74" x2="18.32" y2="7.98"/><line class="cls-4" x1="18.01" y1="10.74" x2="21.94" y2="10.05"/><line class="cls-4" x1="13.98" y1="10.74" x2="13.67" y2="7.98"/><line class="cls-4" x1="13.98" y1="10.74" x2="18.01" y2="10.74"/><line class="cls-4" x1="10.04" y1="10.05" x2="13.98" y2="10.74"/><line class="cls-4" x1="10.04" y1="10.05" x2="8.87" y2="6.6"/><line class="cls-4" x1="6.6" y1="8.88" x2="10.04" y2="10.05"/><line class="cls-5" x1="6.6" y1="8.88" x2="3.49" y2="3.5"/><line class="cls-5" x1="24.01" y1="13.68" x2="25.39" y2="8.88"/><line class="cls-4" x1="21.26" y1="13.98" x2="24.01" y2="13.68"/><line class="cls-4" x1="21.26" y1="13.98" x2="21.94" y2="10.05"/><line class="cls-4" x1="17.81" y1="14.18" x2="21.26" y2="13.98"/><line class="cls-4" x1="17.81" y1="14.18" x2="18.01" y2="10.74"/><line class="cls-4" x1="14.17" y1="14.18" x2="13.98" y2="10.74"/><line class="cls-4" x1="14.17" y1="14.18" x2="17.81" y2="14.18"/><line class="cls-4" x1="10.73" y1="13.98" x2="10.04" y2="10.05"/><line class="cls-4" x1="10.73" y1="13.98" x2="14.17" y2="14.18"/><line class="cls-4" x1="7.97" y1="13.68" x2="10.73" y2="13.98"/><line class="cls-5" x1="7.97" y1="13.68" x2="6.6" y2="8.88"/><line class="cls-5" x1="24.01" y1="18.32" x2="24.01" y2="13.68"/><line class="cls-4" x1="21.26" y1="18.02" x2="24.01" y2="18.32"/><line class="cls-4" x1="21.26" y1="18.02" x2="21.26" y2="13.98"/><line class="cls-4" x1="17.81" y1="17.82" x2="21.26" y2="18.02"/><line class="cls-4" x1="17.81" y1="17.82" x2="17.81" y2="14.18"/><line class="cls-4" x1="14.17" y1="17.82" x2="17.81" y2="17.82"/><line class="cls-4" x1="14.17" y1="17.82" x2="14.17" y2="14.18"/><line class="cls-4" x1="10.73" y1="18.02" x2="10.73" y2="13.98"/><line class="cls-4" x1="10.73" y1="18.02" x2="14.17" y2="17.82"/><line class="cls-4" x1="7.97" y1="18.32" x2="10.73" y2="18.02"/><line class="cls-5" x1="7.97" y1="18.32" x2="7.97" y2="13.68"/><line class="cls-5" x1="25.39" y1="23.12" x2="24.01" y2="18.32"/><line class="cls-4" x1="21.94" y1="21.95" x2="25.39" y2="23.12"/><line class="cls-4" x1="21.94" y1="21.95" x2="21.26" y2="18.02"/><line class="cls-4" x1="18.01" y1="21.26" x2="21.94" y2="21.95"/><line class="cls-4" x1="18.01" y1="21.26" x2="17.81" y2="17.82"/><line class="cls-4" x1="13.98" y1="21.26" x2="18.01" y2="21.26"/><line class="cls-4" x1="13.98" y1="21.26" x2="14.17" y2="17.82"/><line class="cls-4" x1="10.04" y1="21.95" x2="13.98" y2="21.26"/><line class="cls-4" x1="10.04" y1="21.95" x2="10.73" y2="18.02"/><line class="cls-5" x1="6.6" y1="23.12" x2="7.97" y2="18.32"/><line class="cls-4" x1="6.6" y1="23.12" x2="10.04" y2="21.95"/><line class="cls-5" x1="28.49" y1="28.5" x2="25.39" y2="23.12"/><line class="cls-5" x1="23.11" y1="25.4" x2="28.49" y2="28.5"/><line class="cls-4" x1="23.11" y1="25.4" x2="21.94" y2="21.95"/><line class="cls-5" x1="18.32" y1="24.02" x2="23.11" y2="25.4"/><line class="cls-4" x1="18.32" y1="24.02" x2="18.01" y2="21.26"/><line class="cls-5" x1="13.67" y1="24.02" x2="18.32" y2="24.02"/><line class="cls-4" x1="13.67" y1="24.02" x2="13.98" y2="21.26"/><line class="cls-5" x1="8.87" y1="25.4" x2="13.67" y2="24.02"/><line class="cls-4" x1="8.87" y1="25.4" x2="10.04" y2="21.95"/><line class="cls-5" x1="3.49" y1="28.5" x2="6.6" y2="23.12"/><line class="cls-5" x1="3.49" y1="28.5" x2="8.87" y2="25.4"/></g><g id="ANCHORS-2"><rect class="cls-3" x="2.5" y="2.5" width="2" height="2"/><rect class="cls-3" x="27.5" y="2.5" width="2" height="2"/><rect class="cls-3" x="27.5" y="27.5" width="2" height="2"/><rect class="cls-3" x="2.5" y="27.5" width="2" height="2"/></g><g id="TEXT_x5F_white"><text class="cls-2" transform="translate(9.67 21.25)"><tspan class="cls-7" x="0" y="0">f</tspan><tspan x="4.85" y="0">d</tspan></text></g><g id="TEXT"><text class="cls-1" transform="translate(9.67 21.25)"><tspan class="cls-7" x="0" y="0">f</tspan><tspan x="4.85" y="0">d</tspan></text></g></svg>