<?xml version="1.0" encoding="UTF-8"?>
<svg id="CUT" xmlns="http://www.w3.org/2000/svg" viewBox="0 0 311.81 311.81">
  <defs>
    <style>
      .cls-1 {
        fill: #0092d2;
      }
    </style>
  </defs>
  <g id="logo_x5F_curves_x5F_mids">
    <path class="cls-1" d="M213,116.86c-4.25,45.72-5.59,91.77-3.97,137.77-3.28-45.91-3.62-92.08-1.02-138.14.08-1.38,1.26-2.43,2.64-2.36s2.43,1.26,2.36,2.64c0,.03,0,.06,0,.09Z"/>
    <path class="cls-1" d="M67.46,163.83l31.22-.14-31.15,2.14c-.55.04-1.03-.38-1.07-.93-.04-.55.38-1.03.93-1.07.02,0,.04,0,.06,0Z"/>
    <path class="cls-1" d="M268.02,99c-10.45,9.82-21,19.59-32.33,28.5-11.34,8.82-23.44,17.03-37.04,22.16-6.78,2.52-13.71,4.42-20.64,6.26-6.94,1.82-13.91,3.49-20.93,4.97-14.03,2.97-28.19,5.25-42.4,6.96,14.17-2.04,28.26-4.64,42.18-7.93,6.96-1.64,13.88-3.46,20.75-5.44,6.86-1.99,13.72-4.05,20.31-6.68,13.16-5.31,24.88-13.65,35.89-22.63,10.98-9.05,21.25-19.01,31.43-29.04h0c.79-.78,2.05-.77,2.83.02s.77,2.05-.02,2.83c0,0-.02.02-.03.03Z"/>
    <path class="cls-1" d="M259.28,129.68c-8.85,7.55-17.78,15.05-27.41,21.71-4.82,3.3-9.8,6.39-15.05,9.02-5.25,2.63-10.8,4.69-16.54,5.97-5.73,1.3-11.6,1.77-17.42,1.9l-17.42.28c-11.61.24-23.22.64-34.82,1.1,11.59-.71,23.19-1.36,34.8-1.85l17.41-.65c5.78-.25,11.54-.84,17.12-2.23,5.58-1.38,10.95-3.5,16.03-6.18,5.08-2.68,9.93-5.84,14.61-9.2,9.35-6.77,18.07-14.42,26.73-22.12h0c.62-.56,1.57-.5,2.12.12.55.62.5,1.57-.12,2.12,0,0-.02.02-.02.02Z"/>
    <path class="cls-1" d="M87.65,148.78l25.95,9.75-26.85-6.89c-.8-.21-1.29-1.02-1.08-1.83s1.02-1.29,1.83-1.08c.05.01.11.03.16.05Z"/>
    <path class="cls-1" d="M227.6,227.13c2.2-2.61,4.38-5.25,6.62-7.83,2.3-2.54,4.68-5,7.11-7.4,2.45-2.39,4.9-4.79,7.52-7l7.76-6.75,1.24,1.57-8.02,6.32c-2.71,2.07-5.26,4.33-7.81,6.59-2.54,2.27-5.03,4.61-7.44,7.02-2.35,2.46-4.65,4.99-6.98,7.49Z"/>
    <path class="cls-1" d="M172.41,191.08c3.7,2.2,7.33,4.53,10.77,7.13,3.46,2.58,6.64,5.51,9.88,8.32,1.63,1.4,3.26,2.8,4.97,4.07,1.71,1.27,3.5,2.44,5.44,3.24.97.39,1.96.72,2.98.83,1,.12,2.05.08,3.08-.04,2.06-.28,4.04-.99,5.89-1.98,3.69-2.01,6.86-4.92,9.87-7.94,3.01-3.04,5.91-6.22,8.85-9.37,5.85-6.32,11.78-12.58,17.82-18.73l1.76,1.77c-6.16,5.99-12.22,12.08-18.22,18.25-3.01,3.08-5.99,6.19-9.11,9.19-3.12,2.98-6.44,5.91-10.38,7.93-1.97,1-4.11,1.72-6.33,1.96-1.11.11-2.22.13-3.35-.04-1.12-.15-2.19-.54-3.2-.97-2.03-.9-3.83-2.15-5.54-3.48-1.71-1.33-3.32-2.78-4.91-4.23-3.18-2.9-6.28-5.89-9.66-8.54-3.36-2.67-6.93-5.09-10.58-7.37Z"/>
    <path class="cls-1" d="M250.86,79.99c-8.76,22.7-14.72,46.56-16.97,70.88-2.28,24.31-.79,49.03,4.31,73.04-5.92-23.82-8.28-48.6-6.81-73.22,1.43-24.64,6.65-49.05,14.76-72.42.45-1.3,1.88-1.99,3.18-1.54s1.99,1.88,1.54,3.18c0,.02-.02.06-.03.08Z"/>
    <path class="cls-1" d="M176.37,138.69c3.37,22.41,5.97,44.93,7.47,67.49-3.16-22.39-7.39-44.57-12.38-66.56l4.91-.93Z"/>
    <path class="cls-1" d="M139.53,152.49c8.55,9.49,15.54,20.03,21.86,30.87-7.42-10.1-15.47-19.79-24.68-28.03l2.82-2.84Z"/>
    <path class="cls-1" d="M93.19,131.85l31.78,22.86-33.44-20.36c-.71-.43-.93-1.35-.5-2.06.43-.71,1.35-.93,2.06-.5.03.02.07.04.1.06Z"/>
    <path class="cls-1" d="M74.84,92.97l60.74,58.5-62.78-56.3c-.62-.55-.67-1.5-.12-2.12.55-.62,1.5-.67,2.12-.12.01.01.03.03.04.04Z"/>
    <path class="cls-1" d="M103.14,104.39c1.82,3.59,3.5,7.27,4.78,11.13,1.29,3.84,2.21,7.86,2.37,11.96.17,4.09-.5,8.29-2.22,12.02-1.68,3.75-4.13,7.05-6.89,9.98-5.57,5.85-12.26,10.4-19.2,14.33-6.96,3.91-14.26,7.19-21.73,9.96,7.39-2.97,14.58-6.43,21.41-10.5,6.79-4.09,13.31-8.78,18.59-14.64,2.62-2.93,4.89-6.18,6.38-9.75,1.52-3.56,2.04-7.46,1.78-11.31-.25-3.86-1.22-7.67-2.56-11.34-1.32-3.68-3.06-7.22-4.92-10.68l2.21-1.17Z"/>
    <path class="cls-1" d="M142.88,173.69c10.21,1.6,20.36,3.72,30.3,6.6,4.98,1.4,9.88,3.09,14.85,4.4,4.97,1.29,10.08,2.18,15.14,1.78,5.07-.38,9.95-2.05,14.44-4.45,4.5-2.39,8.72-5.35,12.76-8.5,8.07-6.36,15.59-13.44,23.08-20.54h0c.5-.48,1.29-.46,1.77.04s.45,1.29-.05,1.77c0,0-.01.01-.02.02-7.65,6.97-15.35,13.92-23.65,20.2-4.17,3.11-8.51,6.03-13.19,8.4-4.66,2.37-9.8,4.02-15.07,4.31-5.28.3-10.49-.73-15.47-2.13-5-1.43-9.85-3.21-14.79-4.71-9.86-3.07-19.95-5.39-30.12-7.2Z"/>
    <path class="cls-1" d="M130.11,130.88c-1.35,3.21-2.9,6.35-4.81,9.29-1.9,2.94-4.15,5.63-6.62,8.06-2.45,2.45-5.14,4.67-7.99,6.62-2.84,1.96-5.84,3.66-8.89,5.25,2.97-1.73,5.88-3.58,8.6-5.65,2.73-2.07,5.27-4.37,7.56-6.9,2.31-2.51,4.37-5.23,6.06-8.16,1.7-2.92,3.06-6.04,4.23-9.23l1.86.73Z"/>
  </g>
  <g id="logo_x5F_curves">
    <path class="cls-1" d="M17.33,12.4l33.27,44.86c10.99,14.98,22.11,30.1,31.37,46.44,2.3,4.1,4.52,8.21,6.54,12.49,2,4.29,3.74,8.83,4.43,13.68.33,2.42.38,4.9.06,7.33-.31,2.44-.99,4.82-1.95,7.06-1.91,4.5-5.02,8.33-8.55,11.5-3.55,3.18-7.55,5.75-11.71,7.93-4.17,2.15-8.43,4.03-12.71,5.88-8.56,3.66-17.21,7.08-25.89,10.43,8.55-3.65,17.08-7.38,25.48-11.34,4.19-1.99,8.38-4.02,12.4-6.28,4-2.28,7.79-4.92,11.06-8.07,3.26-3.14,6.01-6.83,7.6-10.98,1.63-4.14,2.02-8.62,1.23-12.98-.78-4.36-2.54-8.55-4.61-12.61-2.1-4.06-4.44-8.06-6.84-11.99-9.67-15.72-21.17-30.26-32.71-44.85L11.01,17.31l-.02-.03c-1.38-1.73-1.1-4.24.63-5.62s4.24-1.1,5.62.63c.03.03.06.08.09.11Z"/>
    <path class="cls-1" d="M302.27,16.06c-7.77,18.01-15.55,35.94-22.6,54.13-7.05,18.19-13.35,36.65-18.17,55.53-2.34,9.36-4.02,19-5.34,28.64-.64,4.83-1.18,9.67-1.54,14.52-.35,4.85-.56,9.71-.36,14.52.24,4.8.83,9.64,2.91,13.87,2.06,4.24,5.76,7.51,9.96,9.86,2.09,1.16,4.36,2.08,6.63,2.95,2.28.86,4.6,1.65,6.93,2.4,4.66,1.48,9.37,2.84,14.14,4.01-4.81-.97-9.58-2.12-14.31-3.41-2.37-.65-4.72-1.35-7.06-2.12-2.33-.78-4.66-1.61-6.91-2.74-2.21-1.14-4.34-2.5-6.25-4.17-1.9-1.67-3.55-3.68-4.78-5.92-2.47-4.53-3.28-9.64-3.74-14.56-.42-4.97-.42-9.92-.27-14.86.16-4.94.49-9.86.94-14.78.93-9.83,2.2-19.6,4.2-29.36,4.07-19.32,9.66-38.29,15.99-56.95,6.33-18.67,13.39-37.03,20.39-55.34.99-2.58,3.88-3.87,6.46-2.89s3.87,3.88,2.89,6.46c-.02.06-.06.14-.08.2Z"/>
    <path class="cls-1" d="M281.79,215.87c-4.91.11-9.82.57-14.57,1.68-4.74,1.12-9.34,2.83-13.52,5.2-8.41,4.71-14.73,12.4-19.24,20.76-2.27,4.23-4.18,8.67-5.93,13.19-1.75,4.52-3.31,9.12-4.76,13.77-2.91,9.3-5.36,18.74-7.75,28.27-.54,2.14-2.71,3.45-4.86,2.91-2.14-.54-3.45-2.71-2.91-4.86.02-.08.05-.17.07-.25v-.02c3.04-9.36,6.18-18.78,9.78-28.03,1.79-4.63,3.71-9.23,5.82-13.75,2.11-4.52,4.4-8.98,7.08-13.25,2.68-4.29,5.83-8.29,9.44-11.81,3.61-3.54,7.78-6.54,12.32-8.7,4.54-2.17,9.36-3.6,14.25-4.41,4.9-.8,9.86-.92,14.76-.7Z"/>
    <path class="cls-1" d="M208.32,298.69c-5.64-22.06-11.05-44.05-19.53-64.9-4.2-10.35-9.42-20.3-16.17-29.12-6.73-8.81-15.06-16.42-24.75-21.84-4.84-2.71-9.96-4.93-15.28-6.51-5.32-1.58-10.84-2.51-16.42-2.87-11.18-.74-22.49.72-33.72,2.33-22.51,3.24-44.92,7.23-67.37,11,22.32-4.43,44.61-9.06,67.05-12.97,11.2-1.94,22.59-3.77,34.18-3.35,5.78.21,11.58,1,17.21,2.5,5.64,1.49,11.09,3.67,16.25,6.36,10.36,5.41,19.42,13.2,26.76,22.26,7.37,9.06,13.12,19.29,17.78,29.88,9.31,21.12,15.45,43.31,21.72,65.14.61,2.12-.62,4.34-2.74,4.95-2.12.61-4.34-.62-4.95-2.74,0-.03-.02-.08-.03-.12Z"/>
    <path class="cls-1" d="M146.27,145.78c-11.88-9.97-23.57-20.17-35.05-30.62-11.49-10.43-22.79-21.08-33.97-31.85C54.89,61.76,33.07,39.67,11.27,17.6c-1.55-1.57-1.54-4.11.03-5.66,1.57-1.55,4.11-1.54,5.66.03.04.04.08.09.12.12,20.83,22.98,41.64,45.94,63,68.39,10.68,11.22,21.49,22.32,32.51,33.22,11.01,10.91,22.24,21.6,33.68,32.07Z"/>
    <path class="cls-1" d="M301.71,17.08c-13.8,18.61-27.67,37.32-42.66,55.2-7.5,8.91-15.22,17.71-23.59,25.94-8.33,8.25-17.27,15.91-26.78,22.78-4.77,3.42-9.67,6.64-14.69,9.65-5.03,3.01-10.21,5.75-15.46,8.3-10.51,5.09-21.33,9.41-32.27,13.33-21.9,7.79-44.28,13.95-66.79,19.43,22.3-6.28,44.43-13.24,65.91-21.77,10.73-4.28,21.3-8.95,31.46-14.33,5.07-2.7,10.04-5.56,14.85-8.68,4.81-3.12,9.48-6.43,14-9.93,9.03-7.04,17.46-14.8,25.3-23.15,7.86-8.31,15.13-17.22,22.23-26.29,14.15-18.16,27.23-37.19,40.35-56.29,1.56-2.28,4.68-2.85,6.95-1.29,2.28,1.56,2.85,4.68,1.29,6.95-.03.04-.07.1-.1.15Z"/>
  </g>
</svg>