<?xml version="1.0" encoding="UTF-8"?>
<svg id="CUT" xmlns="http://www.w3.org/2000/svg" viewBox="0 0 311.81 311.81">
  <defs>
    <style>
      .cls-1 {
        fill: #fff;
      }
    </style>
  </defs>
  <g id="logo_x5F_curves_x5F_mids">
    <path class="cls-1" d="M213,116.86c-4.25,45.72-5.59,91.77-3.97,137.77-3.28-45.91-3.62-92.08-1.02-138.14.27-3.33,5.2-2.99,4.99.37h0Z"/>
    <path class="cls-1" d="M67.46,163.83l31.22-.14-31.15,2.14c-1.35.06-1.43-1.96-.07-2h0Z"/>
    <path class="cls-1" d="M268.02,99c-20.97,19.38-42.29,40.04-69.37,50.66-27.16,9.32-55.54,14.63-83.96,18.19,21.26-3.05,42.31-7.41,62.93-13.37,6.86-1.99,13.72-4.05,20.31-6.68,13.16-5.31,24.88-13.65,35.89-22.63,10.98-9.05,21.25-19.01,31.43-29.04,1.89-1.81,4.71.96,2.78,2.88h0Z"/>
    <path class="cls-1" d="M259.28,129.68c-13.29,11.26-26.79,22.78-42.46,30.73-10.45,5.4-22.27,7.8-33.96,7.87-16.86.19-35.48.67-52.25,1.37,16.71-1.06,35.37-1.94,52.21-2.5,18.6-.38,32.95-6.77,47.75-17.61,9.35-6.77,18.07-14.42,26.73-22.12,1.46-1.29,3.5.91,1.98,2.26h0Z"/>
    <path class="cls-1" d="M87.65,148.78l25.95,9.75-26.85-6.89c-2-.56-1.07-3.55.9-2.86h0Z"/>
    <path class="cls-1" d="M227.6,227.13c4.36-5.27,8.8-10.49,13.73-15.24,4.18-4.26,10.73-9.77,15.28-13.75,0,0,1.24,1.57,1.24,1.57-4.74,3.75-11.46,8.86-15.84,12.9-5.15,4.49-9.81,9.46-14.42,14.51h0Z"/>
    <path class="cls-1" d="M172.41,191.08c7.49,4.28,14.3,9.65,20.65,15.45,6.85,5.97,13.2,11.27,22.35,6.12,7.4-4.22,12.83-11.22,18.71-17.3,5.85-6.32,11.78-12.58,17.82-18.73,0,0,1.76,1.77,1.76,1.77-6.16,5.99-12.22,12.08-18.22,18.25-7.27,6.98-15.26,17.67-25.83,19.08-6.88.86-12.27-4.55-17.01-8.72-6.23-5.96-12.85-11.45-20.24-15.91h0Z"/>
    <path class="cls-1" d="M250.86,79.99c-17.81,45.47-23.11,95.96-12.65,143.92-12.17-47.88-8.48-99.12,7.96-145.64,1.17-3.11,5.82-1.46,4.69,1.72h0Z"/>
    <path class="cls-1" d="M176.37,138.69c3.37,22.41,5.97,44.93,7.47,67.49-3.16-22.39-7.39-44.57-12.38-66.56l4.91-.93h0Z"/>
    <path class="cls-1" d="M139.53,152.49c8.55,9.49,15.54,20.03,21.86,30.87-7.42-10.1-15.47-19.79-24.68-28.03l2.82-2.84h0Z"/>
    <path class="cls-1" d="M93.19,131.85l31.78,22.86-33.44-20.36c-1.72-1.1-.03-3.66,1.66-2.5h0Z"/>
    <path class="cls-1" d="M74.84,92.97l60.74,58.5-62.78-56.3c-1.46-1.36.56-3.57,2.04-2.2h0Z"/>
    <path class="cls-1" d="M103.14,104.39c8.03,15.62,11.62,31.33-1.96,45.09-11.27,11.52-26.09,18.6-40.92,24.29,14.55-6.01,29.2-13.49,40-25.14,12.72-13.55,8.74-28.3.68-43.08,0,0,2.21-1.17,2.21-1.17h0Z"/>
    <path class="cls-1" d="M142.88,173.69c15.37,2.17,30.34,6.52,45.16,11,17.36,5.01,28.79-.57,42.35-11.17,8.07-6.36,15.59-13.44,23.08-20.54.5-.48,1.3-.46,1.77.04.48.51.45,1.31-.07,1.78-7.65,6.97-15.35,13.92-23.65,20.2-14.1,10.58-26.08,16.05-43.74,10.58-14.77-4.79-29.54-9.42-44.91-11.9h0Z"/>
    <path class="cls-1" d="M130.11,130.88c-5.05,13.17-15.83,23.09-28.31,29.21,8.87-5.04,17.05-11.82,22.22-20.71,1.7-2.92,3.06-6.04,4.23-9.23l1.86.73h0Z"/>
  </g>
  <g id="logo_x5F_curves">
    <path class="cls-1" d="M17.33,12.4c22.51,31.57,54.28,69.05,71.18,103.79,2,4.29,3.74,8.83,4.43,13.68,2.79,21.83-17.68,32.65-34.85,39.69-8.56,3.66-17.21,7.08-25.89,10.43,12.77-5.54,25.67-10.96,37.88-17.63,18.35-10.48,26.09-24.97,15.29-44.64-10.76-20.5-25.16-38.63-39.55-56.84-.02-.03-34.81-43.58-34.83-43.61-3.2-4.22,2.94-9.14,6.34-4.88h0Z"/>
    <path class="cls-1" d="M302.27,16.06c-20.98,49.13-43.69,98.89-47.65,152.83-1.06,19.28-1.99,33.8,19.14,41.21,6.88,2.56,13.94,4.63,21.06,6.41-9.59-2.11-19.3-4.17-28.29-8.26-4.47-2.26-8.59-5.6-11.03-10.09-4.63-9.12-4.1-19.56-4.01-29.43.93-34.62,10.02-68.47,21.12-101.09,6.33-18.67,13.39-37.03,20.39-55.34,2.58-6.15,11.71-2.63,9.26,3.77h0Z"/>
    <path class="cls-1" d="M281.79,215.87c-36.32.53-48.41,23.45-58.02,54.61-2.91,9.3-5.36,18.74-7.75,28.27-.54,2.14-2.71,3.45-4.86,2.91-2.24-.55-3.56-2.94-2.83-5.13,3.04-9.36,6.18-18.78,9.77-28.03,12.03-31.27,26.41-54.58,63.68-52.63h0Z"/>
    <path class="cls-1" d="M208.32,298.69c-12.27-46.3-23.57-106.46-75.73-122.37-16.31-4.93-33.44-2.98-50.14-.54-22.51,3.24-44.92,7.23-67.37,11,22.32-4.43,44.61-9.06,67.05-12.97,16.76-2.98,34.56-5.45,51.4-.85,17,4.46,32.06,14.99,43.01,28.62,21.61,27.33,29.76,62.51,39.5,95.02,1.31,5.14-6.19,7.3-7.72,2.1h0Z"/>
    <path class="cls-1" d="M146.27,145.78C98.64,105.95,54.84,61.74,11.27,17.6c-3.65-3.92,2.01-9.4,5.81-5.5,41.63,45.95,83.35,91.86,129.19,133.67h0Z"/>
    <path class="cls-1" d="M301.71,17.08c-27.89,36.95-55.1,76.31-93.03,103.91-18.91,13.8-40.48,23.49-62.42,31.28-21.9,7.79-44.28,13.95-66.79,19.43,38.69-11.23,77.91-23.25,112.22-44.78,24.27-15.5,44.05-36.65,61.54-59.37,14.15-18.16,27.23-37.19,40.35-56.29,3.93-5.36,11.98.18,8.14,5.81h0Z"/>
  </g>
</svg>